<?xml version="1.0" ?><!DOCTYPE svg  PUBLIC '-//W3C//DTD SVG 1.1//EN'  'http://www.w3.org/Graphics/SVG/1.1/DTD/svg11.dtd'><svg height="512px" style="enable-background:new 0 0 512 512;" version="1.1" viewBox="0 0 512 512" width="512px" xml:space="preserve" xmlns="http://www.w3.org/2000/svg" xmlns:xlink="http://www.w3.org/1999/xlink"><g id="_x31_1_x2C__ecg_x2C__heart_x2C__heartbeat_x2C__pulse_x2C__beat"><g><path d="M416.703,122.678c1.057,2.303,0.078,5.057-2.225,6.152    c-2.341,1.057-5.058,0.075-6.152-2.227c-0.87-1.85-2.039-4.04-3.436-6.342c-1.436-2.415-3.057-4.906-4.717-7.321    c-1.625-2.302-3.32-4.528-4.945-6.529c-1.509-1.813-2.944-3.437-4.303-4.719c-3.962-3.774-8.303-7.208-12.907-10.19    c-4.565-2.943-9.434-5.51-14.529-7.51c-2.38-0.943-3.548-3.662-2.604-6.039c0.979-2.34,3.66-3.51,6.037-2.566    c5.625,2.264,11.023,5.058,16.115,8.341c5.096,3.283,9.89,7.058,14.305,11.323c1.586,1.51,3.285,3.396,5.021,5.471    c1.772,2.19,3.622,4.644,5.359,7.134c1.85,2.643,3.583,5.322,5.096,7.851C414.362,118.073,415.686,120.526,416.703,122.678     M100.617,275.795c42.76,43.932,98.958,87.977,155.383,131.984c57.594-44.913,114.922-89.865,157.987-134.7    c13.248-13.776,25.174-27.554,35.288-41.291l-88.994,1.698c-2.151,0.039-4.001-1.434-4.531-3.434l-15.701-59.632l-24.229,61.708    c-0.755,1.924-2.678,3.057-4.64,2.905l-68.126,0.075l-29.968,53.027c-1.246,2.227-4.075,3.02-6.265,1.773    c-1.056-0.604-1.772-1.509-2.113-2.564L167.382,175.59l-38.496,96.318c-0.719,1.774-2.453,2.906-4.264,2.906L100.617,275.795z     M152.965,434.123c-2.566,0-4.644-2.076-4.644-4.644c0-2.565,2.078-4.641,4.644-4.641h204.713c2.564,0,4.639,2.075,4.639,4.641    c0,2.567-2.074,4.644-4.639,4.644H152.965z M289.287,459.976c-2.565,0-4.643-2.076-4.643-4.643c0-2.529,2.077-4.604,4.643-4.604    h129.529c2.568,0,4.643,2.075,4.643,4.604c0,2.566-2.074,4.643-4.643,4.643H289.287z M306.119,68.48    c-17.698,11.02-31.93,27.738-46.23,50.082c-0.341,0.528-0.794,1.02-1.397,1.396c-2.151,1.359-5.021,0.755-6.38-1.396    C237.807,96.219,223.579,79.5,205.877,68.48C188.33,57.534,167.08,52.024,138.66,52.024c-31.326,0-59.668,9.888-80.086,25.853    c-20.117,15.701-32.572,37.29-32.572,61.067c0,42.384,26.23,85.07,66.161,127.982l29.213-1.209l42.118-105.299    c0.491-1.208,1.474-2.188,2.832-2.644c2.415-0.829,5.019,0.492,5.851,2.908l38.004,113.865l26.044-46.081    c0.754-1.548,2.337-2.567,4.151-2.567l67.972-0.075l28.27-71.973c0.525-1.321,1.66-2.417,3.13-2.794    c2.491-0.643,5.022,0.83,5.665,3.283l18.34,69.86l92.128-1.812c18.948-27.928,30.119-55.744,30.119-83.446    c0-23.777-12.456-45.366-32.572-61.067c-20.418-15.965-48.761-25.853-80.087-25.853C344.92,52.024,323.67,57.534,306.119,68.48z" style="fill-rule:evenodd;clip-rule:evenodd;"/></g></g><g id="Layer_1"/></svg>